ffmpeg started on 2026-03-29 at 16:58:23
Report written to "D:\Convert\FFMetrics\reports\psnr_report-6.txt"
Log level: 32
Command line:
ffmpeg -hide_banner -nostdin -r 30000/1001 -i "F:\\\xc0\xed\xe8\xec\xe5\\LightFamily\\\xd1\xef\xe8\xf0\xe0\xeb\xfc\\[LightFamily][DUB] \xd1\xef\xe8\xf0\xe0\xeb\xfc 04 \xf1\xe5\xf0\xe8\xff_HEVC.mkv" -r 30000/1001 -i "F:\\\xc0\xed\xe8\xec\xe5\\LightFamily\\\xd1\xef\xe8\xf0\xe0\xeb\xfc\\[LightFamily][DUB] \xd1\xef\xe8\xf0\xe0\xeb\xfc 04 \xf1\xe5\xf0\xe8\xff.mp4" -lavfi "[0:v]settb=AVTB,setpts=PTS-STARTPTS,format=pix_fmts=yuv420p10le,fps=30000/1001,scale=1920:1080:flags=lanczos:param0=3:out_range=limited:out_color_matrix=bt709:out_chroma_loc=left,setsar=1/1,setdar=(1920/1080)*(1/1),colorspace=format=yuv420p10:range=tv:primaries=bt709:trc=bt709:space=bt709:fast=0[main];[1:v]settb=AVTB,setpts=PTS-STARTPTS,format=pix_fmts=yuv420p,fps=30000/1001,scale=1920:1080:flags=lanczos:param0=3:out_range=limited:out_color_matrix=bt709:out_chroma_loc=left,setsar=1/1,setdar=(1920/1080)*(1/1),colorspace=format=yuv420p:range=tv:primaries=bt709:trc=bt709:space=bt709:fast=0[ref];[main][ref]psnr=eof_action=endall:stats_file='D\\:/Convert/FFMetrics/logs/psnr_logfile-6.txt'" -f null -
Input #0, matroska,webm, from 'F:\Аниме\LightFamily\Спираль\[LightFamily][DUB] Спираль 04 серия_HEVC.mkv':
  Metadata:
    COMPATIBLE_BRANDS: mp42iso2avc1mp41
    MAJOR_BRAND     : mp42
    MINOR_VERSION   : 512
    ENCODER         : Lavf61.7.100
  Duration: 00:33:39.95, start: -0.021000, bitrate: 3317 kb/s
  Stream #0:0: Video: hevc (Main 10), yuv420p10le(tv, bt709, progressive), 1920x1080 [SAR 1:1 DAR 16:9], 29.97 fps, 29.97 tbr, 1k tbn (default)
      Metadata:
        HANDLER_NAME    : VideoHandler
        VENDOR_ID       : [0][0][0][0]
        ENCODER         : Lavc61.19.100 libx265
        BPS             : 3120094
        DURATION        : 00:33:39.918366666
        NUMBER_OF_FRAMES: 60537
        NUMBER_OF_BYTES : 787791877
        _STATISTICS_WRITING_APP: mkvpropedit v94.0 ('Initiate') 64-bit
        _STATISTICS_WRITING_DATE_UTC: 2026-03-28 17:31:46
        _STATISTICS_TAGS: BPS DURATION NUMBER_OF_FRAMES NUMBER_OF_BYTES
  Stream #0:1: Audio: aac (LC), 48000 Hz, stereo, fltp (default)
      Metadata:
        HANDLER_NAME    : Stereo
        VENDOR_ID       : [0][0][0][0]
        ENCODER         : Lavc61.19.100 aac
        BPS             : 193228
        DURATION        : 00:33:39.925000000
        NUMBER_OF_FRAMES: 94685
        NUMBER_OF_BYTES : 48788333
        _STATISTICS_WRITING_APP: mkvpropedit v94.0 ('Initiate') 64-bit
        _STATISTICS_WRITING_DATE_UTC: 2026-03-28 17:31:46
        _STATISTICS_TAGS: BPS DURATION NUMBER_OF_FRAMES NUMBER_OF_BYTES
Input #1, mov,mp4,m4a,3gp,3g2,mj2, from 'F:\Аниме\LightFamily\Спираль\[LightFamily][DUB] Спираль 04 серия.mp4':
  Metadata:
    major_brand     : mp42
    minor_version   : 512
    compatible_brands: mp42iso2avc1mp41
    creation_time   : 2026-01-08T18:52:39.000000Z
    encoder         : HandBrake 1.5.1 2022011000
  Duration: 00:33:39.93, start: 0.000000, bitrate: 8325 kb/s
  Stream #1:0[0x1](und): Video: h264 (High) (avc1 / 0x31637661), yuv420p(tv, bt709, progressive), 1920x1080 [SAR 1:1 DAR 16:9], 7999 kb/s, 29.97 fps, 29.97 tbr, 90k tbn (default)
      Metadata:
        creation_time   : 2026-01-08T18:52:39.000000Z
        handler_name    : VideoHandler
        vendor_id       : [0][0][0][0]
  Stream #1:1[0x2](und): Audio: aac (LC) (mp4a / 0x6134706D), 48000 Hz, stereo, fltp, 317 kb/s (default)
      Metadata:
        creation_time   : 2026-01-08T18:52:39.000000Z
        handler_name    : Stereo
        vendor_id       : [0][0][0][0]
Stream mapping:
  Stream #0:0 (hevc) -> settb:default
  Stream #1:0 (h264) -> settb:default
  psnr:default -> Stream #0:0 (wrapped_avframe)
  Stream #0:1 -> #0:1 (aac (native) -> pcm_s16le (native))
Output #0, null, to 'pipe:':
  Metadata:
    COMPATIBLE_BRANDS: mp42iso2avc1mp41
    MAJOR_BRAND     : mp42
    MINOR_VERSION   : 512
    encoder         : Lavf61.7.100
  Stream #0:0: Video: wrapped_avframe, yuv420p10le(tv, bt709, progressive), 1920x1080 [SAR 1:1 DAR 16:9], q=2-31, 200 kb/s, 29.97 fps, 29.97 tbn
      Metadata:
        encoder         : Lavc61.19.100 wrapped_avframe
  Stream #0:1: Audio: pcm_s16le, 48000 Hz, stereo, s16, 1536 kb/s (default)
      Metadata:
        HANDLER_NAME    : Stereo
        VENDOR_ID       : [0][0][0][0]
        _STATISTICS_TAGS: BPS DURATION NUMBER_OF_FRAMES NUMBER_OF_BYTES
        BPS             : 193228
        DURATION        : 00:33:39.925000000
        NUMBER_OF_FRAMES: 94685
        NUMBER_OF_BYTES : 48788333
        _STATISTICS_WRITING_APP: mkvpropedit v94.0 ('Initiate') 64-bit
        _STATISTICS_WRITING_DATE_UTC: 2026-03-28 17:31:46
        encoder         : Lavc61.19.100 pcm_s16le
frame=  144 fps=0.0 q=-0.0 size=N/A time=00:00:04.80 bitrate=N/A speed=9.29x    frame=  302 fps=293 q=-0.0 size=N/A time=00:00:10.07 bitrate=N/A speed=9.78x    frame=  486 fps=316 q=-0.0 size=N/A time=00:00:16.21 bitrate=N/A speed=10.5x    frame=  671 fps=327 q=-0.0 size=N/A time=00:00:22.38 bitrate=N/A speed=10.9x    frame=  848 fps=329 q=-0.0 size=N/A time=00:00:28.29 bitrate=N/A speed=  11x    frame= 1022 fps=331 q=-0.0 size=N/A time=00:00:34.10 bitrate=N/A speed=  11x    frame= 1186 fps=329 q=-0.0 size=N/A time=00:00:39.57 bitrate=N/A speed=  11x    frame= 1374 fps=334 q=-0.0 size=N/A time=00:00:45.84 bitrate=N/A speed=11.1x    frame= 1561 fps=336 q=-0.0 size=N/A time=00:00:52.08 bitrate=N/A speed=11.2x    frame= 1749 fps=340 q=-0.0 size=N/A time=00:00:58.35 bitrate=N/A speed=11.3x    frame= 1926 fps=340 q=-0.0 size=N/A time=00:01:04.26 bitrate=N/A speed=11.4x    frame= 2114 fps=342 q=-0.0 size=N/A time=00:01:10.53 bitrate=N/A speed=11.4x    frame= 2277 fps=340 q=-0.0 size=N/A time=00:01:15.97 bitrate=N/A speed=11.3x    frame= 2428 fps=337 q=-0.0 size=N/A time=00:01:21.01 bitrate=N/A speed=11.2x    frame= 2634 fps=340 q=-0.0 size=N/A time=00:01:27.88 bitrate=N/A speed=11.4x    frame= 2815 fps=341 q=-0.0 size=N/A time=00:01:33.92 bitrate=N/A speed=11.4x    frame= 2991 fps=341 q=-0.0 size=N/A time=00:01:39.79 bitrate=N/A speed=11.4x    frame= 3129 fps=337 q=-0.0 size=N/A time=00:01:44.40 bitrate=N/A speed=11.2x    frame= 3289 fps=336 q=-0.0 size=N/A time=00:01:49.74 bitrate=N/A speed=11.2x    frame= 3464 fps=336 q=-0.0 size=N/A time=00:01:55.58 bitrate=N/A speed=11.2x    frame= 3657 fps=338 q=-0.0 size=N/A time=00:02:02.02 bitrate=N/A speed=11.3x    frame= 3811 fps=336 q=-0.0 size=N/A time=00:02:07.16 bitrate=N/A speed=11.2x    frame= 3965 fps=334 q=-0.0 size=N/A time=00:02:12.29 bitrate=N/A speed=11.2x    frame= 4151 fps=336 q=-0.0 size=N/A time=00:02:18.50 bitrate=N/A speed=11.2x    frame= 4344 fps=337 q=-0.0 size=N/A time=00:02:24.94 bitrate=N/A speed=11.2x    frame= 4535 fps=338 q=-0.0 size=N/A time=00:02:31.31 bitrate=N/A speed=11.3x    frame= 4690 fps=337 q=-0.0 size=N/A time=00:02:36.48 bitrate=N/A speed=11.2x    frame= 4853 fps=336 q=-0.0 size=N/A time=00:02:41.92 bitrate=N/A speed=11.2x    frame= 5018 fps=336 q=-0.0 size=N/A time=00:02:47.43 bitrate=N/A speed=11.2x    frame= 5190 fps=336 q=-0.0 size=N/A time=00:02:53.17 bitrate=N/A speed=11.2x    frame= 5361 fps=336 q=-0.0 size=N/A time=00:02:58.87 bitrate=N/A speed=11.2x    frame= 5508 fps=334 q=-0.0 size=N/A time=00:03:03.78 bitrate=N/A speed=11.1x    frame= 5653 fps=332 q=-0.0 size=N/A time=00:03:08.62 bitrate=N/A speed=11.1x    frame= 5807 fps=331 q=-0.0 size=N/A time=00:03:13.76 bitrate=N/A speed=11.1x    frame= 5941 fps=329 q=-0.0 size=N/A time=00:03:18.23 bitrate=N/A speed=  11x    frame= 6125 fps=330 q=-0.0 size=N/A time=00:03:24.37 bitrate=N/A speed=  11x    frame= 6310 fps=331 q=-0.0 size=N/A time=00:03:30.54 bitrate=N/A speed=  11x    frame= 6496 fps=332 q=-0.0 size=N/A time=00:03:36.74 bitrate=N/A speed=11.1x    frame= 6691 fps=333 q=-0.0 size=N/A time=00:03:43.25 bitrate=N/A speed=11.1x    frame= 6882 fps=333 q=-0.0 size=N/A time=00:03:49.62 bitrate=N/A speed=11.1x    frame= 7075 fps=334 q=-0.0 size=N/A time=00:03:56.06 bitrate=N/A speed=11.2x    frame= 7234 fps=334 q=-0.0 size=N/A time=00:04:01.37 bitrate=N/A speed=11.1x    frame= 7419 fps=334 q=-0.0 size=N/A time=00:04:07.54 bitrate=N/A speed=11.2x    frame= 7535 fps=332 q=-0.0 size=N/A time=00:04:11.41 bitrate=N/A speed=11.1x    frame= 7669 fps=330 q=-0.0 size=N/A time=00:04:15.88 bitrate=N/A speed=  11x    frame= 7839 fps=330 q=-0.0 size=N/A time=00:04:21.56 bitrate=N/A speed=  11x    frame= 7990 fps=330 q=-0.0 size=N/A time=00:04:26.59 bitrate=N/A speed=  11x    frame= 8151 fps=329 q=-0.0 size=N/A time=00:04:31.97 bitrate=N/A speed=  11x    frame= 8336 fps=330 q=-0.0 size=N/A time=00:04:38.14 bitrate=N/A speed=  11x    frame= 8518 fps=330 q=-0.0 size=N/A time=00:04:44.21 bitrate=N/A speed=  11x    frame= 8679 fps=330 q=-0.0 size=N/A time=00:04:49.58 bitrate=N/A speed=  11x    frame= 8854 fps=330 q=-0.0 size=N/A time=00:04:55.42 bitrate=N/A speed=  11x    frame= 9005 fps=329 q=-0.0 size=N/A time=00:05:00.46 bitrate=N/A speed=  11x    frame= 9165 fps=329 q=-0.0 size=N/A time=00:05:05.80 bitrate=N/A speed=  11x    frame= 9319 fps=328 q=-0.0 size=N/A time=00:05:10.94 bitrate=N/A speed=  11x    frame= 9465 fps=328 q=-0.0 size=N/A time=00:05:15.81 bitrate=N/A speed=10.9x    frame= 9627 fps=327 q=-0.0 size=N/A time=00:05:21.22 bitrate=N/A speed=10.9x    frame= 9784 fps=327 q=-0.0 size=N/A time=00:05:26.45 bitrate=N/A speed=10.9x    frame= 9955 fps=327 q=-0.0 size=N/A time=00:05:32.16 bitrate=N/A speed=10.9x    frame=10131 fps=327 q=-0.0 size=N/A time=00:05:38.03 bitrate=N/A speed=10.9x    frame=10319 fps=328 q=-0.0 size=N/A time=00:05:44.31 bitrate=N/A speed=10.9x    frame=10504 fps=328 q=-0.0 size=N/A time=00:05:50.48 bitrate=N/A speed=  11x    frame=10687 fps=329 q=-0.0 size=N/A time=00:05:56.58 bitrate=N/A speed=  11x    frame=10883 fps=330 q=-0.0 size=N/A time=00:06:03.12 bitrate=N/A speed=  11x    frame=11070 fps=330 q=-0.0 size=N/A time=00:06:09.36 bitrate=N/A speed=  11x    frame=11262 fps=331 q=-0.0 size=N/A time=00:06:15.77 bitrate=N/A speed=  11x    frame=11430 fps=331 q=-0.0 size=N/A time=00:06:21.38 bitrate=N/A speed=  11x    frame=11614 fps=331 q=-0.0 size=N/A time=00:06:27.52 bitrate=N/A speed=  11x    frame=11782 fps=331 q=-0.0 size=N/A time=00:06:33.12 bitrate=N/A speed=  11x    frame=11957 fps=331 q=-0.0 size=N/A time=00:06:38.96 bitrate=N/A speed=  11x    frame=12128 fps=331 q=-0.0 size=N/A time=00:06:44.67 bitrate=N/A speed=  11x    frame=12306 fps=331 q=-0.0 size=N/A time=00:06:50.61 bitrate=N/A speed=11.1x    frame=12438 fps=330 q=-0.0 size=N/A time=00:06:55.01 bitrate=N/A speed=  11x    frame=12597 fps=330 q=-0.0 size=N/A time=00:07:00.31 bitrate=N/A speed=  11x    frame=12746 fps=330 q=-0.0 size=N/A time=00:07:05.29 bitrate=N/A speed=  11x    frame=12918 fps=330 q=-0.0 size=N/A time=00:07:11.03 bitrate=N/A speed=  11x    frame=13115 fps=330 q=-0.0 size=N/A time=00:07:17.60 bitrate=N/A speed=  11x    frame=13272 fps=330 q=-0.0 size=N/A time=00:07:22.84 bitrate=N/A speed=  11x    frame=13446 fps=330 q=-0.0 size=N/A time=00:07:28.64 bitrate=N/A speed=  11x    frame=13615 fps=330 q=-0.0 size=N/A time=00:07:34.28 bitrate=N/A speed=  11x    frame=13779 fps=330 q=-0.0 size=N/A time=00:07:39.75 bitrate=N/A speed=  11x    frame=13950 fps=330 q=-0.0 size=N/A time=00:07:45.46 bitrate=N/A speed=  11x    frame=14133 fps=330 q=-0.0 size=N/A time=00:07:51.57 bitrate=N/A speed=  11x    frame=14329 fps=331 q=-0.0 size=N/A time=00:07:58.11 bitrate=N/A speed=  11x    frame=14525 fps=331 q=-0.0 size=N/A time=00:08:04.65 bitrate=N/A speed=11.1x    frame=14725 fps=332 q=-0.0 size=N/A time=00:08:11.32 bitrate=N/A speed=11.1x    frame=14916 fps=332 q=-0.0 size=N/A time=00:08:17.69 bitrate=N/A speed=11.1x    frame=15090 fps=332 q=-0.0 size=N/A time=00:08:23.50 bitrate=N/A speed=11.1x    frame=15286 fps=333 q=-0.0 size=N/A time=00:08:30.04 bitrate=N/A speed=11.1x    frame=15473 fps=333 q=-0.0 size=N/A time=00:08:36.28 bitrate=N/A speed=11.1x    frame=15632 fps=333 q=-0.0 size=N/A time=00:08:41.58 bitrate=N/A speed=11.1x    frame=15812 fps=333 q=-0.0 size=N/A time=00:08:47.59 bitrate=N/A speed=11.1x    frame=16008 fps=334 q=-0.0 size=N/A time=00:08:54.13 bitrate=N/A speed=11.1x    frame=16202 fps=334 q=-0.0 size=N/A time=00:09:00.60 bitrate=N/A speed=11.1x    frame=16386 fps=334 q=-0.0 size=N/A time=00:09:06.74 bitrate=N/A speed=11.2x    frame=16575 fps=335 q=-0.0 size=N/A time=00:09:13.05 bitrate=N/A speed=11.2x    frame=16761 fps=335 q=-0.0 size=N/A time=00:09:19.25 bitrate=N/A speed=11.2x    frame=16950 fps=335 q=-0.0 size=N/A time=00:09:25.56 bitrate=N/A speed=11.2x    frame=17139 fps=336 q=-0.0 size=N/A time=00:09:31.87 bitrate=N/A speed=11.2x    frame=17312 fps=336 q=-0.0 size=N/A time=00:09:37.64 bitrate=N/A speed=11.2x    frame=17502 fps=336 q=-0.0 size=N/A time=00:09:43.98 bitrate=N/A speed=11.2x    frame=17703 fps=337 q=-0.0 size=N/A time=00:09:50.69 bitrate=N/A speed=11.2x    frame=17883 fps=337 q=-0.0 size=N/A time=00:09:56.69 bitrate=N/A speed=11.2x    frame=18067 fps=337 q=-0.0 size=N/A time=00:10:02.83 bitrate=N/A speed=11.2x    frame=18256 fps=337 q=-0.0 size=N/A time=00:10:09.14 bitrate=N/A speed=11.2x    frame=18456 fps=338 q=-0.0 size=N/A time=00:10:15.81 bitrate=N/A speed=11.3x    frame=18654 fps=338 q=-0.0 size=N/A time=00:10:22.42 bitrate=N/A speed=11.3x    frame=18859 fps=339 q=-0.0 size=N/A time=00:10:29.26 bitrate=N/A speed=11.3x    frame=19044 fps=339 q=-0.0 size=N/A time=00:10:35.43 bitrate=N/A speed=11.3x    frame=19230 fps=339 q=-0.0 size=N/A time=00:10:41.64 bitrate=N/A speed=11.3x    frame=19415 fps=339 q=-0.0 size=N/A time=00:10:47.81 bitrate=N/A speed=11.3x    frame=19602 fps=339 q=-0.0 size=N/A time=00:10:54.05 bitrate=N/A speed=11.3x    frame=19802 fps=340 q=-0.0 size=N/A time=00:11:00.72 bitrate=N/A speed=11.3x    frame=19983 fps=340 q=-0.0 size=N/A time=00:11:06.76 bitrate=N/A speed=11.3x    frame=20174 fps=340 q=-0.0 size=N/A time=00:11:13.13 bitrate=N/A speed=11.4x    frame=20361 fps=340 q=-0.0 size=N/A time=00:11:19.37 bitrate=N/A speed=11.4x    frame=20543 fps=340 q=-0.0 size=N/A time=00:11:25.45 bitrate=N/A speed=11.4x    frame=20717 fps=340 q=-0.0 size=N/A time=00:11:31.25 bitrate=N/A speed=11.4x    frame=20886 fps=340 q=-0.0 size=N/A time=00:11:36.89 bitrate=N/A speed=11.4x    frame=21055 fps=340 q=-0.0 size=N/A time=00:11:42.53 bitrate=N/A speed=11.4x    frame=21226 fps=340 q=-0.0 size=N/A time=00:11:48.24 bitrate=N/A speed=11.4x    frame=21396 fps=340 q=-0.0 size=N/A time=00:11:53.91 bitrate=N/A speed=11.3x    frame=21560 fps=340 q=-0.0 size=N/A time=00:11:59.38 bitrate=N/A speed=11.3x    frame=21707 fps=339 q=-0.0 size=N/A time=00:12:04.29 bitrate=N/A speed=11.3x    frame=21866 fps=339 q=-0.0 size=N/A time=00:12:09.59 bitrate=N/A speed=11.3x    frame=22017 fps=339 q=-0.0 size=N/A time=00:12:14.63 bitrate=N/A speed=11.3x    frame=22152 fps=338 q=-0.0 size=N/A time=00:12:19.13 bitrate=N/A speed=11.3x    frame=22295 fps=338 q=-0.0 size=N/A time=00:12:23.90 bitrate=N/A speed=11.3x    frame=22478 fps=338 q=-0.0 size=N/A time=00:12:30.01 bitrate=N/A speed=11.3x    frame=22661 fps=338 q=-0.0 size=N/A time=00:12:36.12 bitrate=N/A speed=11.3x    frame=22836 fps=338 q=-0.0 size=N/A time=00:12:41.96 bitrate=N/A speed=11.3x    frame=23019 fps=338 q=-0.0 size=N/A time=00:12:48.06 bitrate=N/A speed=11.3x    frame=23194 fps=338 q=-0.0 size=N/A time=00:12:53.90 bitrate=N/A speed=11.3x    frame=23379 fps=338 q=-0.0 size=N/A time=00:13:00.07 bitrate=N/A speed=11.3x    frame=23558 fps=338 q=-0.0 size=N/A time=00:13:06.05 bitrate=N/A speed=11.3x    frame=23749 fps=339 q=-0.0 size=N/A time=00:13:12.42 bitrate=N/A speed=11.3x    frame=23943 fps=339 q=-0.0 size=N/A time=00:13:18.89 bitrate=N/A speed=11.3x    frame=24113 fps=339 q=-0.0 size=N/A time=00:13:24.57 bitrate=N/A speed=11.3x    frame=24299 fps=339 q=-0.0 size=N/A time=00:13:30.77 bitrate=N/A speed=11.3x    frame=24495 fps=339 q=-0.0 size=N/A time=00:13:37.31 bitrate=N/A speed=11.3x    frame=24687 fps=340 q=-0.0 size=N/A time=00:13:43.72 bitrate=N/A speed=11.3x    frame=24850 fps=339 q=-0.0 size=N/A time=00:13:49.16 bitrate=N/A speed=11.3x    frame=25039 fps=340 q=-0.0 size=N/A time=00:13:55.46 bitrate=N/A speed=11.3x    frame=25228 fps=340 q=-0.0 size=N/A time=00:14:01.77 bitrate=N/A speed=11.3x    frame=25410 fps=340 q=-0.0 size=N/A time=00:14:07.84 bitrate=N/A speed=11.3x    frame=25605 fps=340 q=-0.0 size=N/A time=00:14:14.35 bitrate=N/A speed=11.3x    frame=25801 fps=340 q=-0.0 size=N/A time=00:14:20.89 bitrate=N/A speed=11.4x    frame=25982 fps=340 q=-0.0 size=N/A time=00:14:26.93 bitrate=N/A speed=11.4x    frame=26174 fps=341 q=-0.0 size=N/A time=00:14:33.33 bitrate=N/A speed=11.4x    frame=26368 fps=341 q=-0.0 size=N/A time=00:14:39.81 bitrate=N/A speed=11.4x    frame=26542 fps=341 q=-0.0 size=N/A time=00:14:45.61 bitrate=N/A speed=11.4x    frame=26719 fps=341 q=-0.0 size=N/A time=00:14:51.52 bitrate=N/A speed=11.4x    frame=26917 fps=341 q=-0.0 size=N/A time=00:14:58.13 bitrate=N/A speed=11.4x    frame=27096 fps=341 q=-0.0 size=N/A time=00:15:04.10 bitrate=N/A speed=11.4x    frame=27291 fps=341 q=-0.0 size=N/A time=00:15:10.60 bitrate=N/A speed=11.4x    frame=27487 fps=342 q=-0.0 size=N/A time=00:15:17.14 bitrate=N/A speed=11.4x    frame=27682 fps=342 q=-0.0 size=N/A time=00:15:23.65 bitrate=N/A speed=11.4x    frame=27867 fps=342 q=-0.0 size=N/A time=00:15:29.82 bitrate=N/A speed=11.4x    frame=28049 fps=342 q=-0.0 size=N/A time=00:15:35.90 bitrate=N/A speed=11.4x    frame=28245 fps=342 q=-0.0 size=N/A time=00:15:42.44 bitrate=N/A speed=11.4x    frame=28432 fps=342 q=-0.0 size=N/A time=00:15:48.68 bitrate=N/A speed=11.4x    frame=28608 fps=342 q=-0.0 size=N/A time=00:15:54.55 bitrate=N/A speed=11.4x    frame=28784 fps=342 q=-0.0 size=N/A time=00:16:00.42 bitrate=N/A speed=11.4x    frame=28949 fps=342 q=-0.0 size=N/A time=00:16:05.93 bitrate=N/A speed=11.4x    frame=29109 fps=342 q=-0.0 size=N/A time=00:16:11.27 bitrate=N/A speed=11.4x    frame=29265 fps=342 q=-0.0 size=N/A time=00:16:16.47 bitrate=N/A speed=11.4x    frame=29412 fps=342 q=-0.0 size=N/A time=00:16:21.38 bitrate=N/A speed=11.4x    frame=29578 fps=341 q=-0.0 size=N/A time=00:16:26.91 bitrate=N/A speed=11.4x    frame=29743 fps=341 q=-0.0 size=N/A time=00:16:32.42 bitrate=N/A speed=11.4x    frame=29909 fps=341 q=-0.0 size=N/A time=00:16:37.96 bitrate=N/A speed=11.4x    frame=30073 fps=341 q=-0.0 size=N/A time=00:16:43.43 bitrate=N/A speed=11.4x    frame=30251 fps=341 q=-0.0 size=N/A time=00:16:49.37 bitrate=N/A speed=11.4x    frame=30438 fps=341 q=-0.0 size=N/A time=00:16:55.61 bitrate=N/A speed=11.4x    frame=30635 fps=341 q=-0.0 size=N/A time=00:17:02.18 bitrate=N/A speed=11.4x    frame=30814 fps=341 q=-0.0 size=N/A time=00:17:08.16 bitrate=N/A speed=11.4x    frame=30960 fps=341 q=-0.0 size=N/A time=00:17:13.03 bitrate=N/A speed=11.4x    frame=31072 fps=340 q=-0.0 size=N/A time=00:17:16.76 bitrate=N/A speed=11.4x    frame=31208 fps=340 q=-0.0 size=N/A time=00:17:21.30 bitrate=N/A speed=11.3x    frame=31361 fps=340 q=-0.0 size=N/A time=00:17:26.41 bitrate=N/A speed=11.3x    frame=31506 fps=339 q=-0.0 size=N/A time=00:17:31.25 bitrate=N/A speed=11.3x    frame=31661 fps=339 q=-0.0 size=N/A time=00:17:36.42 bitrate=N/A speed=11.3x    frame=31833 fps=339 q=-0.0 size=N/A time=00:17:42.16 bitrate=N/A speed=11.3x    frame=32013 fps=339 q=-0.0 size=N/A time=00:17:48.16 bitrate=N/A speed=11.3x    frame=32197 fps=339 q=-0.0 size=N/A time=00:17:54.30 bitrate=N/A speed=11.3x    frame=32356 fps=339 q=-0.0 size=N/A time=00:17:59.61 bitrate=N/A speed=11.3x    frame=32545 fps=339 q=-0.0 size=N/A time=00:18:05.91 bitrate=N/A speed=11.3x    frame=32704 fps=339 q=-0.0 size=N/A time=00:18:11.22 bitrate=N/A speed=11.3x    frame=32879 fps=339 q=-0.0 size=N/A time=00:18:17.06 bitrate=N/A speed=11.3x    frame=33046 fps=339 q=-0.0 size=N/A time=00:18:22.63 bitrate=N/A speed=11.3x    frame=33213 fps=339 q=-0.0 size=N/A time=00:18:28.20 bitrate=N/A speed=11.3x    frame=33382 fps=339 q=-0.0 size=N/A time=00:18:33.84 bitrate=N/A speed=11.3x    frame=33554 fps=339 q=-0.0 size=N/A time=00:18:39.58 bitrate=N/A speed=11.3x    frame=33690 fps=338 q=-0.0 size=N/A time=00:18:44.12 bitrate=N/A speed=11.3x    frame=33862 fps=338 q=-0.0 size=N/A time=00:18:49.86 bitrate=N/A speed=11.3x    frame=34015 fps=338 q=-0.0 size=N/A time=00:18:54.96 bitrate=N/A speed=11.3x    frame=34213 fps=338 q=-0.0 size=N/A time=00:19:01.57 bitrate=N/A speed=11.3x    frame=34381 fps=338 q=-0.0 size=N/A time=00:19:07.17 bitrate=N/A speed=11.3x    frame=34570 fps=339 q=-0.0 size=N/A time=00:19:13.48 bitrate=N/A speed=11.3x    frame=34736 fps=338 q=-0.0 size=N/A time=00:19:19.02 bitrate=N/A speed=11.3x    frame=34913 fps=338 q=-0.0 size=N/A time=00:19:24.93 bitrate=N/A speed=11.3x    frame=35044 fps=338 q=-0.0 size=N/A time=00:19:29.30 bitrate=N/A speed=11.3x    frame=35191 fps=338 q=-0.0 size=N/A time=00:19:34.20 bitrate=N/A speed=11.3x    frame=35343 fps=338 q=-0.0 size=N/A time=00:19:39.27 bitrate=N/A speed=11.3x    frame=35522 fps=338 q=-0.0 size=N/A time=00:19:45.25 bitrate=N/A speed=11.3x    frame=35704 fps=338 q=-0.0 size=N/A time=00:19:51.32 bitrate=N/A speed=11.3x    frame=35860 fps=338 q=-0.0 size=N/A time=00:19:56.52 bitrate=N/A speed=11.3x    frame=36013 fps=337 q=-0.0 size=N/A time=00:20:01.63 bitrate=N/A speed=11.3x    frame=36188 fps=337 q=-0.0 size=N/A time=00:20:07.47 bitrate=N/A speed=11.3x    frame=36376 fps=337 q=-0.0 size=N/A time=00:20:13.74 bitrate=N/A speed=11.3x    frame=36562 fps=338 q=-0.0 size=N/A time=00:20:19.95 bitrate=N/A speed=11.3x    frame=36743 fps=338 q=-0.0 size=N/A time=00:20:25.99 bitrate=N/A speed=11.3x    frame=36914 fps=338 q=-0.0 size=N/A time=00:20:31.69 bitrate=N/A speed=11.3x    frame=37083 fps=338 q=-0.0 size=N/A time=00:20:37.33 bitrate=N/A speed=11.3x    frame=37264 fps=338 q=-0.0 size=N/A time=00:20:43.37 bitrate=N/A speed=11.3x    frame=37424 fps=337 q=-0.0 size=N/A time=00:20:48.71 bitrate=N/A speed=11.3x    frame=37576 fps=337 q=-0.0 size=N/A time=00:20:53.78 bitrate=N/A speed=11.3x    frame=37756 fps=337 q=-0.0 size=N/A time=00:20:59.79 bitrate=N/A speed=11.3x    frame=37894 fps=337 q=-0.0 size=N/A time=00:21:04.39 bitrate=N/A speed=11.2x    frame=38042 fps=337 q=-0.0 size=N/A time=00:21:09.33 bitrate=N/A speed=11.2x    frame=38218 fps=337 q=-0.0 size=N/A time=00:21:15.20 bitrate=N/A speed=11.2x    frame=38393 fps=337 q=-0.0 size=N/A time=00:21:21.04 bitrate=N/A speed=11.2x    frame=38552 fps=337 q=-0.0 size=N/A time=00:21:26.35 bitrate=N/A speed=11.2x    frame=38738 fps=337 q=-0.0 size=N/A time=00:21:32.55 bitrate=N/A speed=11.2x    frame=38852 fps=336 q=-0.0 size=N/A time=00:21:36.36 bitrate=N/A speed=11.2x    frame=39039 fps=336 q=-0.0 size=N/A time=00:21:42.60 bitrate=N/A speed=11.2x    frame=39236 fps=337 q=-0.0 size=N/A time=00:21:49.17 bitrate=N/A speed=11.2x    frame=39386 fps=336 q=-0.0 size=N/A time=00:21:54.17 bitrate=N/A speed=11.2x    frame=39578 fps=337 q=-0.0 size=N/A time=00:22:00.58 bitrate=N/A speed=11.2x    frame=39762 fps=337 q=-0.0 size=N/A time=00:22:06.72 bitrate=N/A speed=11.2x    frame=39947 fps=337 q=-0.0 size=N/A time=00:22:12.89 bitrate=N/A speed=11.2x    frame=40136 fps=337 q=-0.0 size=N/A time=00:22:19.20 bitrate=N/A speed=11.2x    frame=40323 fps=337 q=-0.0 size=N/A time=00:22:25.44 bitrate=N/A speed=11.2x    frame=40484 fps=337 q=-0.0 size=N/A time=00:22:30.81 bitrate=N/A speed=11.2x    frame=40659 fps=337 q=-0.0 size=N/A time=00:22:36.65 bitrate=N/A speed=11.2x    frame=40805 fps=337 q=-0.0 size=N/A time=00:22:41.52 bitrate=N/A speed=11.2x    frame=40983 fps=337 q=-0.0 size=N/A time=00:22:47.46 bitrate=N/A speed=11.2x    frame=41167 fps=337 q=-0.0 size=N/A time=00:22:53.60 bitrate=N/A speed=11.2x    frame=41353 fps=337 q=-0.0 size=N/A time=00:22:59.81 bitrate=N/A speed=11.2x    frame=41524 fps=337 q=-0.0 size=N/A time=00:23:05.51 bitrate=N/A speed=11.2x    frame=41717 fps=337 q=-0.0 size=N/A time=00:23:11.95 bitrate=N/A speed=11.2x    frame=41907 fps=337 q=-0.0 size=N/A time=00:23:18.29 bitrate=N/A speed=11.2x    frame=42096 fps=337 q=-0.0 size=N/A time=00:23:24.60 bitrate=N/A speed=11.3x    frame=42280 fps=337 q=-0.0 size=N/A time=00:23:30.74 bitrate=N/A speed=11.3x    frame=42471 fps=337 q=-0.0 size=N/A time=00:23:37.11 bitrate=N/A speed=11.3x    frame=42652 fps=338 q=-0.0 size=N/A time=00:23:43.15 bitrate=N/A speed=11.3x    frame=42834 fps=338 q=-0.0 size=N/A time=00:23:49.22 bitrate=N/A speed=11.3x    frame=43024 fps=338 q=-0.0 size=N/A time=00:23:55.56 bitrate=N/A speed=11.3x    frame=43193 fps=338 q=-0.0 size=N/A time=00:24:01.20 bitrate=N/A speed=11.3x    frame=43357 fps=338 q=-0.0 size=N/A time=00:24:06.67 bitrate=N/A speed=11.3x    frame=43509 fps=337 q=-0.0 size=N/A time=00:24:11.75 bitrate=N/A speed=11.3x    frame=43677 fps=337 q=-0.0 size=N/A time=00:24:17.35 bitrate=N/A speed=11.3x    frame=43867 fps=338 q=-0.0 size=N/A time=00:24:23.69 bitrate=N/A speed=11.3x    frame=44065 fps=338 q=-0.0 size=N/A time=00:24:30.30 bitrate=N/A speed=11.3x    frame=44249 fps=338 q=-0.0 size=N/A time=00:24:36.44 bitrate=N/A speed=11.3x    frame=44424 fps=338 q=-0.0 size=N/A time=00:24:42.28 bitrate=N/A speed=11.3x    frame=44625 fps=338 q=-0.0 size=N/A time=00:24:48.98 bitrate=N/A speed=11.3x    frame=44813 fps=338 q=-0.0 size=N/A time=00:24:55.26 bitrate=N/A speed=11.3x    frame=44997 fps=338 q=-0.0 size=N/A time=00:25:01.39 bitrate=N/A speed=11.3x    frame=45152 fps=338 q=-0.0 size=N/A time=00:25:06.57 bitrate=N/A speed=11.3x    frame=45250 fps=337 q=-0.0 size=N/A time=00:25:09.84 bitrate=N/A speed=11.3x    frame=45420 fps=337 q=-0.0 size=N/A time=00:25:15.51 bitrate=N/A speed=11.3x    frame=45603 fps=337 q=-0.0 size=N/A time=00:25:21.62 bitrate=N/A speed=11.3x    frame=45766 fps=337 q=-0.0 size=N/A time=00:25:27.05 bitrate=N/A speed=11.3x    frame=45934 fps=337 q=-0.0 size=N/A time=00:25:32.66 bitrate=N/A speed=11.3x    frame=46081 fps=337 q=-0.0 size=N/A time=00:25:37.56 bitrate=N/A speed=11.2x    frame=46236 fps=337 q=-0.0 size=N/A time=00:25:42.74 bitrate=N/A speed=11.2x    frame=46388 fps=337 q=-0.0 size=N/A time=00:25:47.81 bitrate=N/A speed=11.2x    frame=46518 fps=337 q=-0.0 size=N/A time=00:25:52.15 bitrate=N/A speed=11.2x    frame=46634 fps=336 q=-0.0 size=N/A time=00:25:56.02 bitrate=N/A speed=11.2x    frame=46817 fps=336 q=-0.0 size=N/A time=00:26:02.12 bitrate=N/A speed=11.2x    frame=47005 fps=336 q=-0.0 size=N/A time=00:26:08.40 bitrate=N/A speed=11.2x    frame=47191 fps=336 q=-0.0 size=N/A time=00:26:14.60 bitrate=N/A speed=11.2x    frame=47316 fps=336 q=-0.0 size=N/A time=00:26:18.77 bitrate=N/A speed=11.2x    frame=47410 fps=335 q=-0.0 size=N/A time=00:26:21.91 bitrate=N/A speed=11.2x    frame=47579 fps=335 q=-0.0 size=N/A time=00:26:27.55 bitrate=N/A speed=11.2x    frame=47748 fps=335 q=-0.0 size=N/A time=00:26:33.19 bitrate=N/A speed=11.2x    frame=47923 fps=335 q=-0.0 size=N/A time=00:26:39.03 bitrate=N/A speed=11.2x    frame=48091 fps=335 q=-0.0 size=N/A time=00:26:44.63 bitrate=N/A speed=11.2x    frame=48246 fps=335 q=-0.0 size=N/A time=00:26:49.80 bitrate=N/A speed=11.2x    frame=48389 fps=335 q=-0.0 size=N/A time=00:26:54.57 bitrate=N/A speed=11.2x    frame=48556 fps=335 q=-0.0 size=N/A time=00:27:00.15 bitrate=N/A speed=11.2x    frame=48700 fps=335 q=-0.0 size=N/A time=00:27:04.95 bitrate=N/A speed=11.2x    frame=48856 fps=335 q=-0.0 size=N/A time=00:27:10.16 bitrate=N/A speed=11.2x    frame=49002 fps=335 q=-0.0 size=N/A time=00:27:15.03 bitrate=N/A speed=11.2x    frame=49124 fps=334 q=-0.0 size=N/A time=00:27:19.10 bitrate=N/A speed=11.2x    frame=49231 fps=334 q=-0.0 size=N/A time=00:27:22.67 bitrate=N/A speed=11.1x    frame=49386 fps=334 q=-0.0 size=N/A time=00:27:27.84 bitrate=N/A speed=11.1x    frame=49514 fps=333 q=-0.0 size=N/A time=00:27:32.11 bitrate=N/A speed=11.1x    frame=49655 fps=333 q=-0.0 size=N/A time=00:27:36.82 bitrate=N/A speed=11.1x    frame=49834 fps=333 q=-0.0 size=N/A time=00:27:42.79 bitrate=N/A speed=11.1x    frame=50010 fps=333 q=-0.0 size=N/A time=00:27:48.66 bitrate=N/A speed=11.1x    frame=50206 fps=333 q=-0.0 size=N/A time=00:27:55.20 bitrate=N/A speed=11.1x    frame=50378 fps=333 q=-0.0 size=N/A time=00:28:00.94 bitrate=N/A speed=11.1x    frame=50535 fps=333 q=-0.0 size=N/A time=00:28:06.18 bitrate=N/A speed=11.1x    frame=50662 fps=333 q=-0.0 size=N/A time=00:28:10.42 bitrate=N/A speed=11.1x    frame=50762 fps=332 q=-0.0 size=N/A time=00:28:13.75 bitrate=N/A speed=11.1x    frame=50879 fps=332 q=-0.0 size=N/A time=00:28:17.66 bitrate=N/A speed=11.1x    frame=50981 fps=332 q=-0.0 size=N/A time=00:28:21.06 bitrate=N/A speed=11.1x    frame=51118 fps=331 q=-0.0 size=N/A time=00:28:25.63 bitrate=N/A speed=11.1x    frame=51269 fps=331 q=-0.0 size=N/A time=00:28:30.67 bitrate=N/A speed=11.1x    frame=51409 fps=331 q=-0.0 size=N/A time=00:28:35.34 bitrate=N/A speed=  11x    frame=51542 fps=331 q=-0.0 size=N/A time=00:28:39.78 bitrate=N/A speed=  11x    frame=51708 fps=331 q=-0.0 size=N/A time=00:28:45.32 bitrate=N/A speed=  11x    frame=51880 fps=331 q=-0.0 size=N/A time=00:28:51.06 bitrate=N/A speed=  11x    frame=52057 fps=331 q=-0.0 size=N/A time=00:28:56.96 bitrate=N/A speed=  11x    frame=52221 fps=331 q=-0.0 size=N/A time=00:29:02.44 bitrate=N/A speed=  11x    frame=52384 fps=331 q=-0.0 size=N/A time=00:29:07.87 bitrate=N/A speed=  11x    frame=52548 fps=331 q=-0.0 size=N/A time=00:29:13.35 bitrate=N/A speed=  11x    frame=52683 fps=331 q=-0.0 size=N/A time=00:29:17.85 bitrate=N/A speed=  11x    frame=52814 fps=330 q=-0.0 size=N/A time=00:29:22.22 bitrate=N/A speed=  11x    frame=52951 fps=330 q=-0.0 size=N/A time=00:29:26.79 bitrate=N/A speed=  11x    frame=53082 fps=330 q=-0.0 size=N/A time=00:29:31.16 bitrate=N/A speed=  11x    frame=53208 fps=330 q=-0.0 size=N/A time=00:29:35.37 bitrate=N/A speed=  11x    frame=53379 fps=330 q=-0.0 size=N/A time=00:29:41.07 bitrate=N/A speed=  11x    frame=53561 fps=330 q=-0.0 size=N/A time=00:29:47.15 bitrate=N/A speed=  11x    frame=53718 fps=330 q=-0.0 size=N/A time=00:29:52.39 bitrate=N/A speed=  11x    frame=53883 fps=330 q=-0.0 size=N/A time=00:29:57.89 bitrate=N/A speed=  11x    frame=54055 fps=330 q=-0.0 size=N/A time=00:30:03.63 bitrate=N/A speed=  11x    frame=54212 fps=329 q=-0.0 size=N/A time=00:30:08.87 bitrate=N/A speed=  11x    frame=54405 fps=330 q=-0.0 size=N/A time=00:30:15.31 bitrate=N/A speed=  11x    frame=54575 fps=330 q=-0.0 size=N/A time=00:30:20.98 bitrate=N/A speed=  11x    frame=54747 fps=330 q=-0.0 size=N/A time=00:30:26.72 bitrate=N/A speed=  11x    frame=54893 fps=330 q=-0.0 size=N/A time=00:30:31.59 bitrate=N/A speed=  11x    frame=55051 fps=329 q=-0.0 size=N/A time=00:30:36.86 bitrate=N/A speed=  11x    frame=55180 fps=329 q=-0.0 size=N/A time=00:30:41.17 bitrate=N/A speed=  11x    frame=55285 fps=329 q=-0.0 size=N/A time=00:30:44.67 bitrate=N/A speed=  11x    frame=55412 fps=329 q=-0.0 size=N/A time=00:30:48.91 bitrate=N/A speed=  11x    frame=55598 fps=329 q=-0.0 size=N/A time=00:30:55.11 bitrate=N/A speed=  11x    frame=55788 fps=329 q=-0.0 size=N/A time=00:31:01.45 bitrate=N/A speed=  11x    frame=55941 fps=329 q=-0.0 size=N/A time=00:31:06.56 bitrate=N/A speed=  11x    frame=56101 fps=329 q=-0.0 size=N/A time=00:31:11.90 bitrate=N/A speed=  11x    frame=56255 fps=329 q=-0.0 size=N/A time=00:31:17.04 bitrate=N/A speed=  11x    frame=56402 fps=328 q=-0.0 size=N/A time=00:31:21.94 bitrate=N/A speed=  11x    frame=56566 fps=328 q=-0.0 size=N/A time=00:31:27.41 bitrate=N/A speed=  11x    frame=56739 fps=328 q=-0.0 size=N/A time=00:31:33.19 bitrate=N/A speed=  11x    frame=56908 fps=328 q=-0.0 size=N/A time=00:31:38.83 bitrate=N/A speed=  11x    frame=57066 fps=328 q=-0.0 size=N/A time=00:31:44.10 bitrate=N/A speed=  11x    frame=57237 fps=328 q=-0.0 size=N/A time=00:31:49.80 bitrate=N/A speed=  11x    frame=57435 fps=328 q=-0.0 size=N/A time=00:31:56.41 bitrate=N/A speed=  11x    frame=57601 fps=328 q=-0.0 size=N/A time=00:32:01.95 bitrate=N/A speed=  11x    frame=57776 fps=329 q=-0.0 size=N/A time=00:32:07.79 bitrate=N/A speed=  11x    frame=57969 fps=329 q=-0.0 size=N/A time=00:32:14.23 bitrate=N/A speed=  11x    frame=58168 fps=329 q=-0.0 size=N/A time=00:32:20.87 bitrate=N/A speed=  11x    frame=58344 fps=329 q=-0.0 size=N/A time=00:32:26.74 bitrate=N/A speed=  11x    frame=58502 fps=329 q=-0.0 size=N/A time=00:32:32.01 bitrate=N/A speed=  11x    frame=58664 fps=329 q=-0.0 size=N/A time=00:32:37.42 bitrate=N/A speed=  11x    frame=58803 fps=329 q=-0.0 size=N/A time=00:32:42.06 bitrate=N/A speed=  11x    frame=58948 fps=328 q=-0.0 size=N/A time=00:32:46.89 bitrate=N/A speed=  11x    frame=59145 fps=329 q=-0.0 size=N/A time=00:32:53.47 bitrate=N/A speed=  11x    frame=59351 fps=329 q=-0.0 size=N/A time=00:33:00.34 bitrate=N/A speed=  11x    frame=59540 fps=329 q=-0.0 size=N/A time=00:33:06.65 bitrate=N/A speed=  11x    frame=59715 fps=329 q=-0.0 size=N/A time=00:33:12.49 bitrate=N/A speed=  11x    frame=59895 fps=329 q=-0.0 size=N/A time=00:33:18.49 bitrate=N/A speed=  11x    frame=60056 fps=329 q=-0.0 size=N/A time=00:33:23.86 bitrate=N/A speed=  11x    frame=60199 fps=329 q=-0.0 size=N/A time=00:33:28.63 bitrate=N/A speed=  11x    frame=60361 fps=329 q=-0.0 size=N/A time=00:33:34.04 bitrate=N/A speed=  11x    frame=60507 fps=329 q=-0.0 size=N/A time=00:33:38.91 bitrate=N/A speed=  11x    [Parsed_psnr_16 @ 000002ae74f9b8c0] PSNR y:43.239903 u:53.282037 v:53.381913 average:44.793249 min:28.523397 max:111.323563
[out#0/null @ 000002ae5fb8f200] video:26012KiB audio:378740KiB subtitle:0KiB other streams:0KiB global headers:0KiB muxing overhead: unknown
frame=60537 fps=329 q=-0.0 Lsize=N/A time=00:33:39.91 bitrate=N/A speed=  11x    
